<svg xmlns="http://www.w3.org/2000/svg" viewBox="0 0 1440 720" preserveAspectRatio="xMaxYMid slice" aria-hidden="true">
    <rect width="1440" height="720" fill="#F4F2EE"></rect>
    <line x1="682" y1="0" x2="682" y2="720" stroke="#D9D6CE" opacity="0.35"></line><line x1="722" y1="0" x2="722" y2="720" stroke="#D9D6CE" opacity="0.35"></line><line x1="762" y1="0" x2="762" y2="720" stroke="#D9D6CE" opacity="0.35"></line><line x1="802" y1="0" x2="802" y2="720" stroke="#D9D6CE" opacity="0.35"></line><line x1="842" y1="0" x2="842" y2="720" stroke="#D9D6CE" opacity="0.35"></line><line x1="882" y1="0" x2="882" y2="720" stroke="#D9D6CE" opacity="0.35"></line><line x1="922" y1="0" x2="922" y2="720" stroke="#D9D6CE" opacity="0.35"></line><line x1="962" y1="0" x2="962" y2="720" stroke="#D9D6CE" opacity="0.35"></line><line x1="1002" y1="0" x2="1002" y2="720" stroke="#D9D6CE" opacity="0.35"></line><line x1="1042" y1="0" x2="1042" y2="720" stroke="#D9D6CE" opacity="0.35"></line><line x1="1082" y1="0" x2="1082" y2="720" stroke="#D9D6CE" opacity="0.35"></line><line x1="1122" y1="0" x2="1122" y2="720" stroke="#D9D6CE" opacity="0.35"></line><line x1="1162" y1="0" x2="1162" y2="720" stroke="#D9D6CE" opacity="0.35"></line><line x1="1202" y1="0" x2="1202" y2="720" stroke="#D9D6CE" opacity="0.35"></line><line x1="1242" y1="0" x2="1242" y2="720" stroke="#D9D6CE" opacity="0.35"></line><line x1="1282" y1="0" x2="1282" y2="720" stroke="#D9D6CE" opacity="0.35"></line><line x1="1322" y1="0" x2="1322" y2="720" stroke="#D9D6CE" opacity="0.35"></line><line x1="1362" y1="0" x2="1362" y2="720" stroke="#D9D6CE" opacity="0.35"></line><line x1="1402" y1="0" x2="1402" y2="720" stroke="#D9D6CE" opacity="0.35"></line>
    <g transform="translate(722 131)">
      <rect width="320" height="220" fill="#F4F2EE" stroke="#D9D6CE" stroke-width="1"></rect>
      <rect x="26.0" y="74.6" width="5.0" height="117.4" fill="#D85A3C" opacity="0.55"></rect><rect x="35.1" y="67.6" width="5.0" height="124.4" fill="#D85A3C" opacity="0.55"></rect><rect x="44.2" y="98.5" width="5.0" height="93.5" fill="#D85A3C" opacity="0.55"></rect><rect x="53.2" y="123.8" width="5.0" height="68.2" fill="#D85A3C" opacity="0.55"></rect><rect x="62.3" y="68.8" width="5.0" height="123.2" fill="#D85A3C" opacity="0.55"></rect><rect x="71.4" y="44.8" width="5.0" height="147.2" fill="#D85A3C" opacity="0.55"></rect><rect x="80.4" y="61.7" width="5.0" height="130.3" fill="#D85A3C" opacity="0.55"></rect><rect x="89.5" y="110.5" width="5.0" height="81.5" fill="#D85A3C" opacity="0.55"></rect><rect x="98.6" y="84.1" width="5.0" height="107.9" fill="#D85A3C" opacity="0.55"></rect><rect x="107.6" y="47.7" width="5.0" height="144.3" fill="#D85A3C" opacity="0.55"></rect><rect x="116.7" y="49.9" width="5.0" height="142.1" fill="#D85A3C" opacity="0.55"></rect><rect x="125.8" y="90.6" width="5.0" height="101.4" fill="#D85A3C" opacity="0.55"></rect><rect x="134.8" y="122.6" width="5.0" height="69.4" fill="#D85A3C" opacity="0.55"></rect><rect x="143.9" y="77.4" width="5.0" height="114.6" fill="#D85A3C" opacity="0.55"></rect><rect x="153.0" y="63.3" width="5.0" height="128.7" fill="#D85A3C" opacity="0.55"></rect><rect x="162.0" y="89.2" width="5.0" height="102.8" fill="#D85A3C" opacity="0.55"></rect><rect x="171.1" y="145.5" width="5.0" height="46.5" fill="#D85A3C" opacity="0.55"></rect><rect x="180.2" y="121.9" width="5.0" height="70.1" fill="#D85A3C" opacity="0.55"></rect><rect x="189.2" y="90.1" width="5.0" height="101.9" fill="#D85A3C" opacity="0.55"></rect><rect x="198.3" y="95.1" width="5.0" height="96.9" fill="#D85A3C" opacity="0.55"></rect><rect x="207.4" y="136.5" width="5.0" height="55.5" fill="#D85A3C" opacity="0.55"></rect><rect x="216.4" y="163.8" width="5.0" height="28.2" fill="#D85A3C" opacity="0.55"></rect><rect x="225.5" y="115.2" width="5.0" height="76.8" fill="#D85A3C" opacity="0.55"></rect><rect x="234.6" y="96.3" width="5.0" height="95.7" fill="#D85A3C" opacity="0.55"></rect><rect x="243.6" y="116.1" width="5.0" height="75.9" fill="#D85A3C" opacity="0.55"></rect><rect x="252.7" y="164.7" width="5.0" height="27.3" fill="#D85A3C" opacity="1"></rect><rect x="261.8" y="129.5" width="5.0" height="62.5" fill="#D85A3C" opacity="1"></rect><rect x="270.8" y="89.1" width="5.0" height="102.9" fill="#D85A3C" opacity="1"></rect><rect x="279.9" y="85.7" width="5.0" height="106.3" fill="#D85A3C" opacity="1"></rect><rect x="289.0" y="118.9" width="5.0" height="73.1" fill="#D85A3C" opacity="1"></rect>
    </g>
<g transform="translate(1060 131)">
      <rect width="320" height="220" fill="#F4F2EE" stroke="#D9D6CE" stroke-width="1"></rect>
      <path d="M24.0,147.7 L28.6,141.9 L33.2,138.7 L37.8,137.7 L42.4,138.2 L47.1,139.3 L51.7,140.1 L56.3,139.9 L60.9,137.9 L65.5,134.0 L70.1,128.2 L74.7,120.9 L79.3,112.9 L83.9,105.0 L88.5,98.2 L93.2,93.5 L97.8,91.5 L102.4,92.7 L107.0,97.2 L111.6,104.6 L116.2,114.2 L120.8,125.3 L125.4,136.5 L130.0,146.9 L134.6,155.6 L139.3,161.6 L143.9,164.8 L148.5,164.9 L153.1,162.5 L157.7,158.1 L162.3,152.6 L166.9,147.0 L171.5,142.1 L176.1,138.5 L180.7,136.9 L185.4,137.1 L190.0,138.9 L194.6,141.8 L199.2,144.8 L203.8,147.1 L208.4,147.8 L213.0,146.0 L217.6,141.4 L222.2,133.6 L226.8,123.1 L231.5,110.3 L236.1,96.2 L240.7,81.8 L245.3,68.2 L249.9,56.4 L254.5,47.3 L259.1,41.2 L263.7,38.4 L268.3,38.6 L272.9,41.1 L277.6,45.1 L282.2,49.6 L286.8,53.7 L291.4,56.7 L296.0,57.9 L296.0,192 L24.0,192 Z" fill="#2E6FE0" opacity="0.18"></path>
              <path d="M24.0,147.7 L28.6,141.9 L33.2,138.7 L37.8,137.7 L42.4,138.2 L47.1,139.3 L51.7,140.1 L56.3,139.9 L60.9,137.9 L65.5,134.0 L70.1,128.2 L74.7,120.9 L79.3,112.9 L83.9,105.0 L88.5,98.2 L93.2,93.5 L97.8,91.5 L102.4,92.7 L107.0,97.2 L111.6,104.6 L116.2,114.2 L120.8,125.3 L125.4,136.5 L130.0,146.9 L134.6,155.6 L139.3,161.6 L143.9,164.8 L148.5,164.9 L153.1,162.5 L157.7,158.1 L162.3,152.6 L166.9,147.0 L171.5,142.1 L176.1,138.5 L180.7,136.9 L185.4,137.1 L190.0,138.9 L194.6,141.8 L199.2,144.8 L203.8,147.1 L208.4,147.8 L213.0,146.0 L217.6,141.4 L222.2,133.6 L226.8,123.1 L231.5,110.3 L236.1,96.2 L240.7,81.8 L245.3,68.2 L249.9,56.4 L254.5,47.3 L259.1,41.2 L263.7,38.4 L268.3,38.6 L272.9,41.1 L277.6,45.1 L282.2,49.6 L286.8,53.7 L291.4,56.7 L296.0,57.9" fill="none" stroke="#2E6FE0" stroke-width="2"></path>
              <circle cx="296.0" cy="57.9" r="4.5" fill="#F4F2EE" stroke="#2E6FE0" stroke-width="2"></circle>
    </g>
<g transform="translate(722 369)">
      <rect width="320" height="220" fill="#F4F2EE" stroke="#D9D6CE" stroke-width="1"></rect>
      <circle cx="24.0" cy="184.0" r="5.5" fill="#4F8A4A" opacity="0.35"></circle><circle cx="24.0" cy="171.0" r="5.5" fill="#4F8A4A" opacity="0.48"></circle><circle cx="24.0" cy="158.0" r="5.5" fill="#4F8A4A" opacity="0.61"></circle><circle cx="24.0" cy="145.0" r="5.5" fill="#4F8A4A" opacity="0.74"></circle><circle cx="24.0" cy="132.0" r="5.5" fill="#4F8A4A" opacity="0.87"></circle><circle cx="78.4" cy="184.0" r="5.5" fill="#4F8A4A" opacity="0.35"></circle><circle cx="78.4" cy="171.0" r="5.5" fill="#4F8A4A" opacity="0.42"></circle><circle cx="78.4" cy="158.0" r="5.5" fill="#4F8A4A" opacity="0.49"></circle><circle cx="78.4" cy="145.0" r="5.5" fill="#4F8A4A" opacity="0.57"></circle><circle cx="78.4" cy="132.0" r="5.5" fill="#4F8A4A" opacity="0.64"></circle><circle cx="78.4" cy="119.0" r="5.5" fill="#4F8A4A" opacity="0.71"></circle><circle cx="78.4" cy="106.0" r="5.5" fill="#4F8A4A" opacity="0.78"></circle><circle cx="78.4" cy="93.0" r="5.5" fill="#4F8A4A" opacity="0.86"></circle><circle cx="78.4" cy="80.0" r="5.5" fill="#4F8A4A" opacity="0.93"></circle><circle cx="132.8" cy="184.0" r="5.5" fill="#4F8A4A" opacity="0.35"></circle><circle cx="132.8" cy="171.0" r="5.5" fill="#4F8A4A" opacity="0.44"></circle><circle cx="132.8" cy="158.0" r="5.5" fill="#4F8A4A" opacity="0.54"></circle><circle cx="132.8" cy="145.0" r="5.5" fill="#4F8A4A" opacity="0.63"></circle><circle cx="132.8" cy="132.0" r="5.5" fill="#4F8A4A" opacity="0.72"></circle><circle cx="132.8" cy="119.0" r="5.5" fill="#4F8A4A" opacity="0.81"></circle><circle cx="132.8" cy="106.0" r="5.5" fill="#4F8A4A" opacity="0.91"></circle><circle cx="187.2" cy="184.0" r="5.5" fill="#4F8A4A" opacity="0.35"></circle><circle cx="187.2" cy="171.0" r="5.5" fill="#4F8A4A" opacity="0.43"></circle><circle cx="187.2" cy="158.0" r="5.5" fill="#4F8A4A" opacity="0.51"></circle><circle cx="187.2" cy="145.0" r="5.5" fill="#4F8A4A" opacity="0.59"></circle><circle cx="187.2" cy="132.0" r="5.5" fill="#4F8A4A" opacity="0.68"></circle><circle cx="187.2" cy="119.0" r="5.5" fill="#4F8A4A" opacity="0.76"></circle><circle cx="187.2" cy="106.0" r="5.5" fill="#4F8A4A" opacity="0.84"></circle><circle cx="187.2" cy="93.0" r="5.5" fill="#4F8A4A" opacity="0.92"></circle><circle cx="241.6" cy="184.0" r="5.5" fill="#4F8A4A" opacity="0.35"></circle><circle cx="241.6" cy="171.0" r="5.5" fill="#4F8A4A" opacity="0.42"></circle><circle cx="241.6" cy="158.0" r="5.5" fill="#4F8A4A" opacity="0.49"></circle><circle cx="241.6" cy="145.0" r="5.5" fill="#4F8A4A" opacity="0.57"></circle><circle cx="241.6" cy="132.0" r="5.5" fill="#4F8A4A" opacity="0.64"></circle><circle cx="241.6" cy="119.0" r="5.5" fill="#4F8A4A" opacity="0.71"></circle><circle cx="241.6" cy="106.0" r="5.5" fill="#4F8A4A" opacity="0.78"></circle><circle cx="241.6" cy="93.0" r="5.5" fill="#4F8A4A" opacity="0.86"></circle><circle cx="241.6" cy="80.0" r="5.5" fill="#4F8A4A" opacity="0.93"></circle><circle cx="296.0" cy="184.0" r="5.5" fill="#4F8A4A" opacity="0.35"></circle><circle cx="296.0" cy="171.0" r="5.5" fill="#4F8A4A" opacity="0.46"></circle><circle cx="296.0" cy="158.0" r="5.5" fill="#4F8A4A" opacity="0.57"></circle><circle cx="296.0" cy="145.0" r="5.5" fill="#4F8A4A" opacity="0.68"></circle><circle cx="296.0" cy="132.0" r="5.5" fill="#4F8A4A" opacity="0.78"></circle><circle cx="296.0" cy="119.0" r="5.5" fill="#4F8A4A" opacity="0.89"></circle>
    </g>
<g transform="translate(1060 369)">
      <rect width="320" height="220" fill="#F4F2EE" stroke="#D9D6CE" stroke-width="1"></rect>
      <path d="M160.0 38.0 A72 72 0 0 1 225.1 140.7" fill="none" stroke="#2E6FE0" stroke-width="20" stroke-linecap="butt"></path><path d="M223.9 143.2 A72 72 0 0 1 115.4 166.5" fill="none" stroke="#D85A3C" stroke-width="20" stroke-linecap="butt"></path><path d="M113.2 164.7 A72 72 0 0 1 97.5 74.2" fill="none" stroke="#4F8A4A" stroke-width="20" stroke-linecap="butt"></path><path d="M99.0 71.8 A72 72 0 0 1 168.6 38.5" fill="none" stroke="#8C5BD2" stroke-width="20" stroke-linecap="butt"></path>
    </g>
  </svg>