<svg xmlns="http://www.w3.org/2000/svg" viewBox="0 0 460 110" role="img" aria-label="DigiPols">
  <title>DigiPols</title>
  
  <g transform="translate(3,3)">
    <circle cx="50" cy="50" r="46" fill="none" stroke="#0E1014" stroke-width="2" opacity="0.18"></circle>
    <circle cx="50" cy="50" r="32" fill="none" stroke="#0E1014" stroke-width="2" opacity="0.45"></circle>
    <circle cx="50" cy="50" r="20" fill="none" stroke="#0E1014" stroke-width="2.5"></circle>
    <circle cx="50" cy="50" r="9" fill="#2A6FDB"></circle>
  </g>
  
  <path d="M155.048 78L134.720 78L134.720 18.360L154.544 18.360Q168.824 18.360 176.510 26.130Q184.196 33.900 184.196 48.264Q184.196 62.544 176.636 70.272Q169.076 78 155.048 78M145.640 27.852L145.640 68.508L154.544 68.508Q172.940 68.508 172.940 48.264Q172.940 27.852 154.544 27.852 M202.404 78L191.652 78L191.652 33.144L202.404 33.144L202.404 78M202.656 27.180L191.484 27.180L191.484 17.604L202.656 17.604 M231.700 91.608Q222.880 91.608 217.840 88.080Q212.800 84.552 211.288 78.840L222.376 78.084Q223.216 80.688 225.274 82.074Q227.332 83.460 231.700 83.460Q236.656 83.460 239.344 81.234Q242.032 79.008 242.032 74.304L242.032 68.592Q240.436 71.868 236.908 73.842Q233.380 75.816 229.012 75.816Q223.468 75.816 219.142 73.086Q214.816 70.356 212.380 65.484Q209.944 60.612 209.944 54.060Q209.944 47.592 212.380 42.678Q214.816 37.764 219.058 34.950Q223.300 32.136 228.844 32.136Q233.632 32.136 237.160 34.320Q240.688 36.504 242.368 40.116L242.368 33.144L252.868 33.144L252.868 74.052Q252.868 82.704 247.072 87.156Q241.276 91.608 231.700 91.608M231.532 67.416Q236.320 67.416 239.218 63.846Q242.116 60.276 242.116 53.976Q242.200 47.760 239.302 44.148Q236.404 40.536 231.532 40.536Q226.576 40.536 223.846 44.190Q221.116 47.844 221.116 53.976Q221.116 60.108 223.930 63.762Q226.744 67.416 231.532 67.416 M273.680 78L262.928 78L262.928 33.144L273.680 33.144L273.680 78M273.932 27.180L262.760 27.180L262.760 17.604L273.932 17.604 M295.584 78L284.664 78L284.664 18.360L307.764 18.360Q318.180 18.360 324.102 23.400Q330.024 28.440 330.024 37.344Q330.024 46.332 324.102 51.414Q318.180 56.496 307.764 56.496L295.584 56.496L295.584 78M295.584 27.852L295.584 47.004L307.260 47.004Q312.804 47.004 315.786 44.568Q318.768 42.132 318.768 37.344Q318.768 32.640 315.786 30.246Q312.804 27.852 307.260 27.852 M357.388 79.008Q350.668 79.008 345.712 76.110Q340.756 73.212 338.026 67.962Q335.296 62.712 335.296 55.572Q335.296 48.432 338.026 43.182Q340.756 37.932 345.712 35.034Q350.668 32.136 357.388 32.136Q364.024 32.136 368.980 35.034Q373.936 37.932 376.666 43.182Q379.396 48.432 379.396 55.572Q379.396 62.712 376.666 67.962Q373.936 73.212 368.980 76.110Q364.024 79.008 357.388 79.008M357.388 70.272Q362.512 70.272 365.368 66.408Q368.224 62.544 368.224 55.572Q368.224 48.600 365.368 44.736Q362.512 40.872 357.388 40.872Q352.180 40.872 349.324 44.736Q346.468 48.600 346.468 55.572Q346.468 62.544 349.324 66.408Q352.180 70.272 357.388 70.272 M404.240 78L397.604 78Q392.648 78 389.750 75.480Q386.852 72.960 386.852 67.416L386.852 18.360L397.604 18.360L397.604 66.324Q397.604 69.684 400.964 69.684L404.240 69.684 M428.328 79.008Q418.080 79.008 413.040 74.724Q408 70.440 407.496 63.888L418.500 63.384Q419.088 66.912 421.314 68.844Q423.540 70.776 428.412 70.776Q432.192 70.776 434.166 69.558Q436.140 68.340 436.140 65.736Q436.140 64.224 435.426 63.216Q434.712 62.208 432.654 61.452Q430.596 60.696 426.648 59.940Q419.844 58.764 415.980 57.042Q412.116 55.320 410.562 52.716Q409.008 50.112 409.008 46.248Q409.008 40.032 413.838 36.084Q418.668 32.136 427.992 32.136Q434.460 32.136 438.618 34.194Q442.776 36.252 444.918 39.654Q447.060 43.056 447.396 47.256L436.476 47.760Q436.308 44.568 434.292 42.468Q432.276 40.368 427.824 40.368Q424.044 40.368 422.070 41.880Q420.096 43.392 420.096 45.912Q420.096 48.600 421.986 49.902Q423.876 51.204 428.916 52.044Q435.804 53.052 439.836 54.816Q443.868 56.580 445.590 59.226Q447.312 61.872 447.312 65.568Q447.312 72.036 442.146 75.522Q436.980 79.008 428.328 79.008" fill="#0E1014"/>
</svg>